<?xml version="1.0" encoding="utf-8"?>
<!-- Generator: Adobe Illustrator 21.0.0, SVG Export Plug-In . SVG Version: 6.00 Build 0)  -->
<svg version="1.1" id="Layer_1" xmlns="http://www.w3.org/2000/svg" xmlns:xlink="http://www.w3.org/1999/xlink" x="0px" y="0px"
	 viewBox="0 0 157.3 156" style="enable-background:new 0 0 157.3 156;" xml:space="preserve">
<style type="text/css">
	.st0{fill:#231F20;}
	.st1{fill:none;stroke:#231F20;stroke-width:5;stroke-miterlimit:10;}
</style>
<g>
	<path class="st0" d="M60.2,60.3L60.2,60.3c3.7,0,6.6,3,6.6,6.6v33.3v13.3H53.5h-6.1H34.1v-13.3V66.9l0,0l0,0l0,0
		c0.1-14.1,11.6-25.6,25.7-25.6l0,0c7.5,0,14.3,3.3,19,8.5c4.7-5.2,11.5-8.5,19-8.5l0,0c14.1,0,25.6,11.5,25.6,25.6l0,0l0,0l0,0
		v33.2v13.3h-13.3H104H90.7v-13.2V66.9c0-3.6,3-6.6,6.6-6.6l0,0c3.7,0,6.6,3,6.6,6.6v33.3h6.1V66.9l0,0c0-6.8-5.6-12.4-12.4-12.4
		l0,0c-6.8,0-12.4,5.6-12.4,12.4l0,0v46.5H72.1c0-23.8,0-22.8,0-46.6c0-6.8-5.6-12.4-12.4-12.4l0,0c-6.8,0-12.4,5.6-12.4,12.4l0,0
		v33.3h6.1V66.9C53.5,63.2,56.5,60.3,60.2,60.3L60.2,60.3z M76.5,109.1H81V66.9c0-9.2,7.5-16.7,16.8-16.7c9.2,0,16.7,7.5,16.7,16.7
		v37.7H99.6V66.9c0-1.2-1-2.3-2.3-2.3c-1.2,0-2.3,1-2.3,2.3v42.2h23.9V66.9c0.1-11.7-9.5-21.2-21.1-21.2c-6,0-11.7,2.6-15.8,7
		l-3.2,3.6l-3.3-3.6c-4-4.5-9.7-7-15.7-7c-11.7,0-21.3,9.5-21.3,21.2v42.2h23.9V66.9c0-1.2-1-2.3-2.3-2.3c-1.2,0-2.3,1-2.3,2.3v37.7
		H43V66.9c0-9.2,7.6-16.7,16.8-16.7s16.7,7.5,16.7,16.7C76.5,84.6,76.5,91.4,76.5,109.1z"/>
</g>
<rect x="2.6" y="2.1" class="st1" width="152.3" height="151.2"/>
</svg>
