<?xml version="1.0" encoding="utf-8"?>
<!-- Generator: Adobe Illustrator 21.0.0, SVG Export Plug-In . SVG Version: 6.00 Build 0)  -->
<svg version="1.1" id="Capa_1" xmlns="http://www.w3.org/2000/svg" xmlns:xlink="http://www.w3.org/1999/xlink" x="0px" y="0px"
	 viewBox="0 0 488.7 512" style="enable-background:new 0 0 488.7 512;" xml:space="preserve">
<style type="text/css">
	.st0{fill:#FFFFFF;}
</style>
<g>
	<path class="st0" d="M202.8,12.2l-24.6,24.6C170,45.3,166,55.3,166,66.7c0,11.6,4.1,21.5,12.2,29.6l96.6,96.6H43.4
		c-11.4,0-21.3,4.2-29.6,12.5C5.5,213.7,1.3,223.6,1.3,235V277c0,11.4,4.2,21.3,12.5,29.6c8.3,8.3,18.2,12.5,29.6,12.5h231.3
		l-96.6,96.6c-8.1,8.1-12.2,18-12.2,29.6c0,11.4,4.1,21.4,12.2,29.9l24.6,24.3c8.3,8.3,18.3,12.5,29.9,12.5
		c11.8,0,21.7-4.2,29.6-12.5l214.3-213.9c8.1-8.1,12.2-18,12.2-29.6c0-11.4-4.1-21.4-12.2-29.9L262.3,12.2
		C254.1,4.1,244.3,0,232.7,0C221.3,0,211.3,4.1,202.8,12.2z"/>
</g>
</svg>
