<?xml version="1.0" encoding="utf-8"?>
<!-- Generator: Adobe Illustrator 21.0.2, SVG Export Plug-In . SVG Version: 6.00 Build 0)  -->
<svg version="1.1" id="Layer_1" xmlns="http://www.w3.org/2000/svg" xmlns:xlink="http://www.w3.org/1999/xlink" x="0px" y="0px"
	 viewBox="0 0 565.6 457.1" style="enable-background:new 0 0 565.6 457.1;" xml:space="preserve">
<style type="text/css">
	.st0{fill-rule:evenodd;clip-rule:evenodd;fill:#129647;}
</style>
<path class="st0" d="M165.6,119.9L165.6,119.9c23.1,0,42,19,42,42v210.6v84h-84H84.9h-84v-84V162.1V162v-0.2l0,0
	C1,72.8,74,0,163.1,0h0c47.5,0,90.4,20.7,120.2,53.6C313,20.7,355.9,0,403.4,0l0,0c89.1,0,162,72.8,162.2,161.9l0,0v0.2v0.1v210.3
	v84h-84h-38.7h-84v-84V161.9c0-23.1,18.9-42,42-42l0,0c23.1,0,42,19,42,42v210.6h38.7V161.9l0,0c0-43-35.2-78.2-78.2-78.2l0,0
	c-43,0-78.2,35.2-78.2,78.2v0.3v294.3h-84c0-150.4,0-144.2,0-294.6c0-43-35.2-78.2-78.2-78.2l0,0c-43,0-78.2,35.2-78.2,78.2l0,0
	v210.6h38.7V161.9C123.6,138.8,142.5,119.9,165.6,119.9L165.6,119.9z M269,428.7h28.6V161.9c0-58.3,47.6-105.9,105.9-105.9
	c58.3,0,105.9,47.6,105.9,105.9v238.3h-94.2V161.9c0-7.8-6.5-14.3-14.3-14.3c-7.8,0-14.3,6.5-14.3,14.3v266.9h151.3V161.9
	c-0.1-73.8-60.7-134.2-134.5-134.2c-38.1,0-74.1,16.2-99.6,44.5l-20.5,22.7l-20.6-22.7c-25.6-28.2-61.5-44.5-99.6-44.5
	c-73.8,0-134.5,60.4-134.5,134.2v266.9h151.3V161.9c0-7.8-6.5-14.3-14.3-14.3c-7.8,0-14.3,6.5-14.3,14.3v238.3H57.2V161.9
	C57.2,103.6,104.8,56,163.1,56C221.4,56,269,103.6,269,161.9C269,273.8,269,316.9,269,428.7z"/>
</svg>
