<?xml version="1.0" encoding="utf-8"?>
<!-- Generator: Adobe Illustrator 21.0.2, SVG Export Plug-In . SVG Version: 6.00 Build 0)  -->
<svg version="1.1" id="Layer_1" xmlns="http://www.w3.org/2000/svg" xmlns:xlink="http://www.w3.org/1999/xlink" x="0px" y="0px"
	 viewBox="0 0 236 73.3" style="enable-background:new 0 0 236 73.3;" xml:space="preserve">
<style type="text/css">
	.st0{fill-rule:evenodd;clip-rule:evenodd;fill:#37B44A;}
	.st1{opacity:0.5;}
	.st2{fill:#444545;}
</style>
<path class="st0" d="M26.4,19.6L26.4,19.6c3.7,0,6.6,3,6.6,6.6v33.3v13.3H19.7h-6.1H0.3V59.5V26.2v0v0l0,0C0.4,12.1,11.9,0.6,26,0.6
	h0c7.5,0,14.3,3.3,19,8.5c4.7-5.2,11.5-8.5,19-8.5l0,0c14.1,0,25.6,11.5,25.6,25.6l0,0v0v0v33.2v13.3H76.3h-6.1H56.9V59.5V26.2
	c0-3.6,3-6.6,6.6-6.6l0,0c3.7,0,6.6,3,6.6,6.6v33.3h6.1V26.2l0,0c0-6.8-5.6-12.4-12.4-12.4l0,0c-6.8,0-12.4,5.6-12.4,12.4v0v46.5
	H38.3c0-23.8,0-22.8,0-46.6c0-6.8-5.6-12.4-12.4-12.4l0,0c-6.8,0-12.4,5.6-12.4,12.4l0,0v33.3h6.1V26.2
	C19.7,22.5,22.7,19.6,26.4,19.6L26.4,19.6z M42.7,68.4h4.5V26.2C47.2,17,54.7,9.5,64,9.5c9.2,0,16.7,7.5,16.7,16.7v37.7H65.8V26.2
	c0-1.2-1-2.3-2.3-2.3c-1.2,0-2.3,1-2.3,2.3v42.2h23.9V26.2C85.2,14.5,75.6,5,64,5c-6,0-11.7,2.6-15.8,7L45,15.6L41.7,12
	C37.7,7.5,32,5,26,5C14.3,5,4.7,14.5,4.7,26.2v42.2h23.9V26.2c0-1.2-1-2.3-2.3-2.3c-1.2,0-2.3,1-2.3,2.3v37.7H9.2V26.2
	C9.2,17,16.8,9.5,26,9.5c9.2,0,16.7,7.5,16.7,16.7C42.7,43.9,42.7,50.7,42.7,68.4z"/>
<g class="st1">
	<path class="st2" d="M102.1,11h2.1l3.4,5.2l3.4-5.2h2.1v11H111v-7.9l-3.5,5.2h-0.1l-3.4-5.2V22h-1.9V11z"/>
	<path class="st2" d="M121.3,22.2c-0.9,0-1.6-0.1-2.3-0.4s-1.3-0.7-1.8-1.2c-0.5-0.5-0.9-1.1-1.2-1.8c-0.3-0.7-0.4-1.4-0.4-2.2v0
		c0-0.8,0.1-1.5,0.4-2.2s0.7-1.3,1.2-1.8c0.5-0.5,1.1-0.9,1.8-1.2c0.7-0.3,1.5-0.5,2.3-0.5s1.6,0.1,2.3,0.4c0.7,0.3,1.3,0.7,1.8,1.2
		c0.5,0.5,0.9,1.1,1.2,1.8c0.3,0.7,0.4,1.4,0.4,2.2v0c0,0.8-0.1,1.5-0.4,2.2c-0.3,0.7-0.7,1.3-1.2,1.8c-0.5,0.5-1.1,0.9-1.8,1.2
		S122.2,22.2,121.3,22.2z M121.4,20.4c0.5,0,1-0.1,1.5-0.3c0.5-0.2,0.8-0.5,1.2-0.8c0.3-0.4,0.6-0.8,0.8-1.2c0.2-0.5,0.3-1,0.3-1.5
		v0c0-0.5-0.1-1-0.3-1.5c-0.2-0.5-0.4-0.9-0.8-1.2c-0.3-0.4-0.7-0.6-1.2-0.8c-0.5-0.2-1-0.3-1.5-0.3s-1,0.1-1.5,0.3
		s-0.8,0.5-1.2,0.8c-0.3,0.4-0.6,0.8-0.8,1.2c-0.2,0.5-0.3,1-0.3,1.5v0c0,0.5,0.1,1,0.3,1.5c0.2,0.5,0.4,0.9,0.8,1.2
		c0.3,0.4,0.7,0.6,1.2,0.8C120.3,20.3,120.8,20.4,121.4,20.4z"/>
	<path class="st2" d="M128.8,11h2.1l3.3,8.5l3.3-8.5h2.1l-4.6,11.1h-1.7L128.8,11z"/>
	<path class="st2" d="M141.9,11h8.2v1.7h-6.2v2.8h5.5v1.7h-5.5v2.9h6.3V22h-8.2V11z"/>
	<path class="st2" d="M152.7,11h2.1l3.4,5.2l3.4-5.2h2.1v11h-1.9v-7.9l-3.5,5.2h-0.1l-3.4-5.2V22h-1.9V11z"/>
	<path class="st2" d="M166.7,11h8.2v1.7h-6.2v2.8h5.5v1.7h-5.5v2.9h6.3V22h-8.2V11z"/>
	<path class="st2" d="M177.6,11h1.8l5.9,7.6V11h1.9v11h-1.6l-6.1-7.8V22h-1.9V11z"/>
	<path class="st2" d="M193.1,12.8h-3.5V11h8.9v1.8H195V22h-2V12.8z"/>
	<path class="st2" d="M104.8,29.7h-3.5v-1.8h8.9v1.8h-3.5v9.2h-2V29.7z"/>
	<path class="st2" d="M112.6,27.9h8.2v1.7h-6.2v2.8h5.5v1.7h-5.5v2.9h6.3v1.7h-8.2V27.9z"/>
	<path class="st2" d="M123.5,27.9h2.1l3.4,5.2l3.4-5.2h2.1v11h-1.9V31l-3.5,5.2h-0.1l-3.4-5.2v7.9h-1.9V27.9z"/>
	<path class="st2" d="M137.4,27.9h4.3c0.6,0,1.2,0.1,1.7,0.3c0.5,0.2,1,0.4,1.3,0.7c0.4,0.3,0.6,0.7,0.8,1.2c0.2,0.5,0.3,1,0.3,1.5
		v0c0,0.6-0.1,1.2-0.3,1.6c-0.2,0.5-0.5,0.9-0.9,1.2c-0.4,0.3-0.9,0.6-1.4,0.7c-0.5,0.2-1.1,0.2-1.7,0.2h-2.2v3.5h-1.9V27.9z
		 M141.6,33.6c0.7,0,1.3-0.2,1.7-0.6c0.4-0.4,0.6-0.8,0.6-1.4v0c0-0.7-0.2-1.1-0.6-1.5c-0.4-0.3-1-0.5-1.7-0.5h-2.3v4H141.6z"/>
	<path class="st2" d="M148.3,27.9h1.9v9.3h5.8v1.7h-7.7V27.9z"/>
	<path class="st2" d="M162.2,27.8h1.8l4.8,11.1h-2l-1.1-2.7h-5.2l-1.1,2.7h-2L162.2,27.8z M165,34.5l-1.9-4.4l-1.9,4.4H165z"/>
	<path class="st2" d="M173.8,29.7h-3.5v-1.8h8.9v1.8h-3.5v9.2h-2V29.7z"/>
	<path class="st2" d="M181.6,27.9h8.2v1.7h-6.2v2.8h5.5v1.7h-5.5v2.9h6.3v1.7h-8.2V27.9z"/>
	<path class="st2" d="M197.5,27.9h8.2v1.7h-6.3v3h5.6v1.7h-5.6v4.5h-1.9V27.9z"/>
	<path class="st2" d="M213.4,39.1c-0.9,0-1.6-0.1-2.3-0.4s-1.3-0.7-1.8-1.2c-0.5-0.5-0.9-1.1-1.2-1.8c-0.3-0.7-0.4-1.4-0.4-2.2v0
		c0-0.8,0.1-1.5,0.4-2.2s0.7-1.3,1.2-1.8c0.5-0.5,1.1-0.9,1.8-1.2c0.7-0.3,1.5-0.5,2.3-0.5s1.6,0.1,2.3,0.4c0.7,0.3,1.3,0.7,1.8,1.2
		c0.5,0.5,0.9,1.1,1.2,1.8c0.3,0.7,0.4,1.4,0.4,2.2v0c0,0.8-0.1,1.5-0.4,2.2c-0.3,0.7-0.7,1.3-1.2,1.8c-0.5,0.5-1.1,0.9-1.8,1.2
		S214.3,39.1,213.4,39.1z M213.4,37.3c0.5,0,1-0.1,1.5-0.3c0.5-0.2,0.8-0.5,1.2-0.8c0.3-0.4,0.6-0.8,0.8-1.2c0.2-0.5,0.3-1,0.3-1.5
		v0c0-0.5-0.1-1-0.3-1.5c-0.2-0.5-0.4-0.9-0.8-1.2c-0.3-0.4-0.7-0.6-1.2-0.8c-0.5-0.2-1-0.3-1.5-0.3s-1,0.1-1.5,0.3
		s-0.8,0.5-1.2,0.8c-0.3,0.4-0.6,0.8-0.8,1.2c-0.2,0.5-0.3,1-0.3,1.5v0c0,0.5,0.1,1,0.3,1.5c0.2,0.5,0.4,0.9,0.8,1.2
		c0.3,0.4,0.7,0.6,1.2,0.8C212.4,37.2,212.9,37.3,213.4,37.3z"/>
	<path class="st2" d="M221.8,27.9h4.9c0.7,0,1.3,0.1,1.8,0.3c0.5,0.2,1,0.5,1.3,0.8c0.3,0.3,0.5,0.7,0.7,1.1
		c0.2,0.4,0.2,0.8,0.2,1.3v0c0,0.5-0.1,0.9-0.2,1.2c-0.1,0.4-0.3,0.7-0.5,1c-0.2,0.3-0.5,0.5-0.8,0.7c-0.3,0.2-0.7,0.3-1.1,0.4
		l3,4.2h-2.3l-2.7-3.8h0h-2.4v3.8h-1.9V27.9z M226.6,33.3c0.7,0,1.2-0.2,1.7-0.5c0.4-0.3,0.6-0.8,0.6-1.4v0c0-0.6-0.2-1.1-0.6-1.4
		c-0.4-0.3-1-0.5-1.7-0.5h-2.8v3.7H226.6z"/>
	<path class="st2" d="M102.1,44.8h1.8l5.9,7.6v-7.6h1.9v11h-1.6l-6.1-7.8v7.8h-1.9V44.8z"/>
	<path class="st2" d="M120.1,56c-0.9,0-1.6-0.1-2.3-0.4s-1.3-0.7-1.8-1.2c-0.5-0.5-0.9-1.1-1.2-1.8c-0.3-0.7-0.4-1.4-0.4-2.2v0
		c0-0.8,0.1-1.5,0.4-2.2s0.7-1.3,1.2-1.8c0.5-0.5,1.1-0.9,1.8-1.2c0.7-0.3,1.5-0.5,2.3-0.5s1.6,0.1,2.3,0.4c0.7,0.3,1.3,0.7,1.8,1.2
		c0.5,0.5,0.9,1.1,1.2,1.8c0.3,0.7,0.4,1.4,0.4,2.2v0c0,0.8-0.1,1.5-0.4,2.2c-0.3,0.7-0.7,1.3-1.2,1.8c-0.5,0.5-1.1,0.9-1.8,1.2
		S120.9,56,120.1,56z M120.1,54.2c0.5,0,1-0.1,1.5-0.3c0.5-0.2,0.8-0.5,1.2-0.8c0.3-0.4,0.6-0.8,0.8-1.2c0.2-0.5,0.3-1,0.3-1.5v0
		c0-0.5-0.1-1-0.3-1.5c-0.2-0.5-0.4-0.9-0.8-1.2c-0.3-0.4-0.7-0.6-1.2-0.8c-0.5-0.2-1-0.3-1.5-0.3s-1,0.1-1.5,0.3s-0.8,0.5-1.2,0.8
		c-0.3,0.4-0.6,0.8-0.8,1.2c-0.2,0.5-0.3,1-0.3,1.5v0c0,0.5,0.1,1,0.3,1.5c0.2,0.5,0.4,0.9,0.8,1.2c0.3,0.4,0.7,0.6,1.2,0.8
		C119.1,54.1,119.6,54.2,120.1,54.2z"/>
	<path class="st2" d="M128.5,44.8h1.8l5.9,7.6v-7.6h1.9v11h-1.6l-6.1-7.8v7.8h-1.9V44.8z"/>
	<path class="st2" d="M146.3,44.8h4.3c0.6,0,1.2,0.1,1.7,0.3c0.5,0.2,1,0.4,1.3,0.7c0.4,0.3,0.6,0.7,0.8,1.2c0.2,0.5,0.3,1,0.3,1.5
		v0c0,0.6-0.1,1.2-0.3,1.6c-0.2,0.5-0.5,0.9-0.9,1.2c-0.4,0.3-0.9,0.6-1.4,0.7c-0.5,0.2-1.1,0.2-1.7,0.2h-2.2v3.5h-1.9V44.8z
		 M150.5,50.5c0.7,0,1.3-0.2,1.7-0.6c0.4-0.4,0.6-0.8,0.6-1.4v0c0-0.7-0.2-1.1-0.6-1.5c-0.4-0.3-1-0.5-1.7-0.5h-2.3v4H150.5z"/>
	<path class="st2" d="M157.2,44.8h4.9c0.7,0,1.3,0.1,1.8,0.3c0.5,0.2,1,0.5,1.3,0.8c0.3,0.3,0.5,0.7,0.7,1.1
		c0.2,0.4,0.2,0.8,0.2,1.3v0c0,0.5-0.1,0.9-0.2,1.2c-0.1,0.4-0.3,0.7-0.5,1c-0.2,0.3-0.5,0.5-0.8,0.7c-0.3,0.2-0.7,0.3-1.1,0.4
		l3,4.2h-2.3l-2.7-3.8h0h-2.4v3.8h-1.9V44.8z M161.9,50.2c0.7,0,1.2-0.2,1.7-0.5c0.4-0.3,0.6-0.8,0.6-1.4v0c0-0.6-0.2-1.1-0.6-1.4
		c-0.4-0.3-1-0.5-1.7-0.5h-2.8v3.7H161.9z"/>
	<path class="st2" d="M174.1,56c-0.9,0-1.6-0.1-2.3-0.4s-1.3-0.7-1.8-1.2c-0.5-0.5-0.9-1.1-1.2-1.8c-0.3-0.7-0.4-1.4-0.4-2.2v0
		c0-0.8,0.1-1.5,0.4-2.2s0.7-1.3,1.2-1.8c0.5-0.5,1.1-0.9,1.8-1.2c0.7-0.3,1.5-0.5,2.3-0.5s1.6,0.1,2.3,0.4c0.7,0.3,1.3,0.7,1.8,1.2
		c0.5,0.5,0.9,1.1,1.2,1.8c0.3,0.7,0.4,1.4,0.4,2.2v0c0,0.8-0.1,1.5-0.4,2.2c-0.3,0.7-0.7,1.3-1.2,1.8c-0.5,0.5-1.1,0.9-1.8,1.2
		S175,56,174.1,56z M174.1,54.2c0.5,0,1-0.1,1.5-0.3c0.5-0.2,0.8-0.5,1.2-0.8c0.3-0.4,0.6-0.8,0.8-1.2c0.2-0.5,0.3-1,0.3-1.5v0
		c0-0.5-0.1-1-0.3-1.5c-0.2-0.5-0.4-0.9-0.8-1.2c-0.3-0.4-0.7-0.6-1.2-0.8c-0.5-0.2-1-0.3-1.5-0.3s-1,0.1-1.5,0.3s-0.8,0.5-1.2,0.8
		c-0.3,0.4-0.6,0.8-0.8,1.2c-0.2,0.5-0.3,1-0.3,1.5v0c0,0.5,0.1,1,0.3,1.5c0.2,0.5,0.4,0.9,0.8,1.2c0.3,0.4,0.7,0.6,1.2,0.8
		C173.1,54.1,173.6,54.2,174.1,54.2z"/>
	<path class="st2" d="M182.6,44.8h8.2v1.7h-6.3v3h5.6v1.7h-5.6v4.5h-1.9V44.8z"/>
	<path class="st2" d="M193.3,44.8h1.9v11h-1.9V44.8z"/>
	<path class="st2" d="M201.2,46.6h-3.5v-1.8h8.9v1.8h-3.5v9.2h-2V46.6z"/>
	<path class="st2" d="M107.3,72.9c-0.9,0-1.6-0.1-2.3-0.4s-1.3-0.7-1.8-1.2c-0.5-0.5-0.9-1.1-1.2-1.8c-0.3-0.7-0.4-1.4-0.4-2.2v0
		c0-0.8,0.1-1.5,0.4-2.2s0.7-1.3,1.2-1.8c0.5-0.5,1.1-0.9,1.8-1.2c0.7-0.3,1.5-0.5,2.3-0.5s1.6,0.1,2.3,0.4c0.7,0.3,1.3,0.7,1.8,1.2
		c0.5,0.5,0.9,1.1,1.2,1.8c0.3,0.7,0.4,1.4,0.4,2.2v0c0,0.8-0.1,1.5-0.4,2.2c-0.3,0.7-0.7,1.3-1.2,1.8c-0.5,0.5-1.1,0.9-1.8,1.2
		S108.2,72.9,107.3,72.9z M107.4,71.1c0.5,0,1-0.1,1.5-0.3c0.5-0.2,0.8-0.5,1.2-0.8c0.3-0.4,0.6-0.8,0.8-1.2c0.2-0.5,0.3-1,0.3-1.5
		v0c0-0.5-0.1-1-0.3-1.5c-0.2-0.5-0.4-0.9-0.8-1.2c-0.3-0.4-0.7-0.6-1.2-0.8c-0.5-0.2-1-0.3-1.5-0.3s-1,0.1-1.5,0.3
		s-0.8,0.5-1.2,0.8c-0.3,0.4-0.6,0.8-0.8,1.2c-0.2,0.5-0.3,1-0.3,1.5v0c0,0.5,0.1,1,0.3,1.5c0.2,0.5,0.4,0.9,0.8,1.2
		c0.3,0.4,0.7,0.6,1.2,0.8C106.3,71,106.8,71.1,107.4,71.1z"/>
	<path class="st2" d="M115.8,61.7h4.9c0.7,0,1.3,0.1,1.8,0.3c0.5,0.2,1,0.5,1.3,0.8c0.3,0.3,0.5,0.7,0.7,1.1
		c0.2,0.4,0.2,0.8,0.2,1.3v0c0,0.5-0.1,0.9-0.2,1.2c-0.1,0.4-0.3,0.7-0.5,1c-0.2,0.3-0.5,0.5-0.8,0.7c-0.3,0.2-0.7,0.3-1.1,0.4
		l3,4.2h-2.3l-2.7-3.8h0h-2.4v3.8h-1.9V61.7z M120.5,67.1c0.7,0,1.2-0.2,1.7-0.5c0.4-0.3,0.6-0.8,0.6-1.4v0c0-0.6-0.2-1.1-0.6-1.4
		c-0.4-0.3-1-0.5-1.7-0.5h-2.8v3.7H120.5z"/>
	<path class="st2" d="M132.7,72.9c-0.9,0-1.6-0.1-2.3-0.4c-0.7-0.3-1.3-0.7-1.8-1.2c-0.5-0.5-0.9-1.1-1.2-1.8
		c-0.3-0.7-0.4-1.4-0.4-2.2v0c0-0.8,0.1-1.5,0.4-2.2c0.3-0.7,0.7-1.3,1.2-1.8c0.5-0.5,1.1-0.9,1.8-1.2c0.7-0.3,1.5-0.5,2.3-0.5
		c0.5,0,0.9,0,1.3,0.1s0.8,0.2,1.1,0.3c0.3,0.1,0.7,0.3,1,0.5c0.3,0.2,0.6,0.4,0.9,0.6l-1.2,1.5c-0.2-0.2-0.4-0.3-0.6-0.5
		c-0.2-0.1-0.5-0.3-0.7-0.4c-0.2-0.1-0.5-0.2-0.8-0.2c-0.3-0.1-0.6-0.1-1-0.1c-0.5,0-1,0.1-1.4,0.3c-0.4,0.2-0.8,0.5-1.1,0.8
		c-0.3,0.4-0.6,0.8-0.8,1.2s-0.3,1-0.3,1.5v0c0,0.6,0.1,1.1,0.3,1.6c0.2,0.5,0.4,0.9,0.8,1.2c0.3,0.3,0.7,0.6,1.2,0.8s1,0.3,1.5,0.3
		c0.5,0,1-0.1,1.5-0.2c0.5-0.2,0.9-0.4,1.2-0.6v-2.1h-2.8v-1.7h4.7v4.6c-0.3,0.2-0.6,0.5-0.9,0.7s-0.7,0.4-1.1,0.6
		c-0.4,0.2-0.8,0.3-1.2,0.4C133.7,72.8,133.2,72.9,132.7,72.9z"/>
	<path class="st2" d="M144,61.6h1.8l4.8,11.1h-2l-1.1-2.7h-5.2l-1.1,2.7h-2L144,61.6z M146.8,68.3l-1.9-4.4l-1.9,4.4H146.8z"/>
	<path class="st2" d="M152.9,61.7h1.8l5.9,7.6v-7.6h1.9v11h-1.6l-6.1-7.8v7.8h-1.9V61.7z"/>
	<path class="st2" d="M165.8,61.7h1.9v11h-1.9V61.7z"/>
	<path class="st2" d="M170.6,71.2l6.5-7.9h-6.3v-1.7h8.8v1.4l-6.5,7.9h6.5v1.7h-9V71.2z"/>
	<path class="st2" d="M186.2,61.6h1.8l4.8,11.1h-2l-1.1-2.7h-5.2l-1.1,2.7h-2L186.2,61.6z M189,68.3l-1.9-4.4l-1.9,4.4H189z"/>
	<path class="st2" d="M197.8,63.4h-3.5v-1.8h8.9v1.8h-3.5v9.2h-2V63.4z"/>
	<path class="st2" d="M205.7,61.7h1.9v11h-1.9V61.7z"/>
	<path class="st2" d="M216.1,72.9c-0.9,0-1.6-0.1-2.3-0.4s-1.3-0.7-1.8-1.2c-0.5-0.5-0.9-1.1-1.2-1.8c-0.3-0.7-0.4-1.4-0.4-2.2v0
		c0-0.8,0.1-1.5,0.4-2.2s0.7-1.3,1.2-1.8c0.5-0.5,1.1-0.9,1.8-1.2c0.7-0.3,1.5-0.5,2.3-0.5s1.6,0.1,2.3,0.4c0.7,0.3,1.3,0.7,1.8,1.2
		c0.5,0.5,0.9,1.1,1.2,1.8c0.3,0.7,0.4,1.4,0.4,2.2v0c0,0.8-0.1,1.5-0.4,2.2c-0.3,0.7-0.7,1.3-1.2,1.8c-0.5,0.5-1.1,0.9-1.8,1.2
		S217,72.9,216.1,72.9z M216.2,71.1c0.5,0,1-0.1,1.5-0.3c0.5-0.2,0.8-0.5,1.2-0.8c0.3-0.4,0.6-0.8,0.8-1.2c0.2-0.5,0.3-1,0.3-1.5v0
		c0-0.5-0.1-1-0.3-1.5c-0.2-0.5-0.4-0.9-0.8-1.2c-0.3-0.4-0.7-0.6-1.2-0.8c-0.5-0.2-1-0.3-1.5-0.3s-1,0.1-1.5,0.3s-0.8,0.5-1.2,0.8
		c-0.3,0.4-0.6,0.8-0.8,1.2c-0.2,0.5-0.3,1-0.3,1.5v0c0,0.5,0.1,1,0.3,1.5c0.2,0.5,0.4,0.9,0.8,1.2c0.3,0.4,0.7,0.6,1.2,0.8
		C215.1,71,215.6,71.1,216.2,71.1z"/>
	<path class="st2" d="M224.6,61.7h1.8l5.9,7.6v-7.6h1.9v11h-1.6l-6.1-7.8v7.8h-1.9V61.7z"/>
</g>
</svg>
