<?xml version="1.0" encoding="iso-8859-1"?>
<!-- Generator: Adobe Illustrator 19.0.0, SVG Export Plug-In . SVG Version: 6.00 Build 0)  -->
<svg xmlns="http://www.w3.org/2000/svg" xmlns:xlink="http://www.w3.org/1999/xlink" version="1.1" id="Layer_1" x="0px" y="0px" viewBox="0 0 511.998 511.998" style="enable-background:new 0 0 511.998 511.998;" xml:space="preserve" width="512px" height="512px">
<g>
	<g>
		<path d="M297.701,15.049c-6.352-0.883-12.671-1.32-18.882-1.32c-42.329-0.008-79.875,20.351-93.539,58.413    c-2.742,0.828-5.484,1.773-8.219,2.844c-38.531,15.117-66.437,50.937-82.905,106.335c-0.969,3.266-0.367,6.961,1.945,9.797    c3.72,4.569,10.439,5.257,15.009,1.538c1.727-1.414,2.898-3.25,3.484-5.234c13.773-46.398,35.804-76.812,65.522-90.538    c-3.617,46.694,26.57,70.296,75.022,70.296c5.102,0,10.407-0.258,15.899-0.789c9.844-0.938,19.273-1.359,28.249-1.359    c74.983,0,119.015,29.258,119.015,29.258S389.294,27.799,297.701,15.049z M269.015,145.155c-4.797,0.461-9.461,0.688-13.875,0.688    c-26.867,0-39.609-8.148-45.57-14.984c-7.328-8.398-9.891-21.03-7.625-37.53c0.156-1.141,0.344-2.266,0.555-3.383    c45.726-7.977,90.631,17.992,91.139,18.289v-0.008c3.734,2.203,8.594,1.992,12.156-0.906c4.57-3.719,5.258-10.438,1.531-15.008    c-0.813-1-1.781-1.805-2.836-2.43l0.008-0.008c-2.188-1.297-44.796-26.086-93.351-22.508c4.039-6.438,9.281-12.063,15.718-16.812    c13.547-9.992,31.993-15.5,51.954-15.5c5.242,0,10.609,0.383,15.944,1.125c15.672,2.18,30.585,11.008,44.312,26.25    c12.234,13.563,23.469,32.008,33.398,54.82c6.055,13.898,10.875,27.733,14.586,39.921c-27.172-8.828-57.344-13.469-87.772-13.469    C289.319,143.702,279.132,144.186,269.015,145.155z" fill="#FFFFFF"/>
	</g>
</g>
<g>
	<g>
		<path d="M492.339,335.021c0.648-2.797,1.203-5.641,1.641-8.547c6.188-40.929-10.898-83.022-50.646-124.99    c-2.344-2.469-5.828-3.773-9.438-3.195c-5.82,0.938-9.773,6.414-8.836,12.226c0.359,2.203,1.359,4.141,2.789,5.648    c33.289,35.125,48.615,69.414,45.646,102.006c-13.264-9.093-26.162-13.374-38.365-13.374c-27.078,0-50.719,21.062-67.297,57.358    c-38.414,84.116-97.787,113.585-97.787,113.585s59.912,21.944,119.295,21.944c37.266,0,74.313-8.64,96.232-36.765    C516.401,421.356,522.3,370.412,492.339,335.021z M468.745,447.81c-14.756,18.938-41.475,28.539-79.404,28.539    c-25.344,0-51.117-4.383-71.531-9.117c21.664-19.484,48.508-50.406,69.43-96.218c6.953-15.211,15.336-27.313,24.242-35    c7.711-6.656,15.453-9.891,23.648-9.891c9.383,0,19.656,4.281,30.537,12.727c0.898,0.711,1.781,1.438,2.641,2.172    c-15.959,43.593-60.889,69.491-61.404,69.78l0.008,0.008c-3.773,2.133-6.023,6.445-5.297,10.984    c0.938,5.813,6.414,9.766,12.227,8.828c1.281-0.203,2.461-0.641,3.531-1.242l0.008,0.008c2.211-1.242,44.945-25.727,66.131-69.538    c4.523,8.547,6.945,18.078,7.141,28.351C491.034,408.02,483.253,429.192,468.745,447.81z" fill="#FFFFFF"/>
	</g>
</g>
<g>
	<g>
		<path d="M253.03,471.028c-2.086-0.789-4.266-0.891-6.281-0.406c-47.062,11.273-84.421,7.398-111.163-11.477    c46.687-22.344,48.312-66.336,14.734-113.491c-53.632-75.327-49.468-141.482-49.468-141.482S-28.834,312.538,5.916,398.231    c16.781,41.375,51.257,70.172,90.812,70.172c4.883,0,9.836-0.445,14.844-1.352c2.094,1.953,4.281,3.859,6.578,5.688    c21.312,17.008,48.062,25.538,79.914,25.53c16.507,0,34.405-2.297,53.601-6.883c0.023-0.008,0.055-0.016,0.055-0.016    c3.305-0.797,6.18-3.155,7.485-6.577C261.296,479.286,258.538,473.13,253.03,471.028z M118.383,443.231    c-29.765-35.609-29.734-87.476-29.726-88.069h-0.008c0.039-4.336-2.57-8.438-6.867-10.07c-5.5-2.094-11.664,0.672-13.758,6.172    c-0.461,1.211-0.68,2.453-0.688,3.68H67.32c-0.023,2.539-0.188,51.812,27.172,92.069c-13.469-0.508-26.734-5.641-38.484-14.922    c-12.835-10.141-23.32-24.617-30.319-41.875c-5.945-14.663-5.758-31.999,0.578-51.507c5.632-17.367,15.984-36.319,30.772-56.327    c9.016-12.195,18.594-23.289,27.289-32.602c6.047,28.508,19.398,67.218,48.617,108.249c15.757,22.133,22.07,42.46,17.781,57.249    c-3.258,11.195-13.054,20.195-29.14,26.75C120.516,442.458,119.453,442.856,118.383,443.231z" fill="#FFFFFF"/>
	</g>
</g>
<g>
</g>
<g>
</g>
<g>
</g>
<g>
</g>
<g>
</g>
<g>
</g>
<g>
</g>
<g>
</g>
<g>
</g>
<g>
</g>
<g>
</g>
<g>
</g>
<g>
</g>
<g>
</g>
<g>
</g>
</svg>
