<?xml version="1.0" encoding="iso-8859-1"?>
<!-- Generator: Adobe Illustrator 19.0.0, SVG Export Plug-In . SVG Version: 6.00 Build 0)  -->
<svg xmlns="http://www.w3.org/2000/svg" xmlns:xlink="http://www.w3.org/1999/xlink" version="1.1" id="Layer_1" x="0px" y="0px" viewBox="0 0 512 512" style="enable-background:new 0 0 512 512;" xml:space="preserve" width="512px" height="512px">
<g>
	<g>
		<path d="M471.843,471.843V381.49h30.118c2.917,0,5.691-1.27,7.598-3.477c1.907-2.208,2.76-5.137,2.333-8.023L461.696,28.657    c-0.723-4.928-4.951-8.578-9.931-8.578H271.059H250.98H60.235c-4.98,0-9.208,3.651-9.931,8.578L0.108,369.99    c-0.426,2.886,0.426,5.815,2.333,8.023c1.907,2.207,4.681,3.477,7.598,3.477h30.118v90.353H0v20.078h40.157h20.078v-20.078V381.49    h391.529v110.431h10.039h10.039H512v-20.078H471.843z M131.083,361.412H21.662l17.717-120.471h98.79L131.083,361.412z     M139.351,220.863H42.332l14.764-100.392h88.161L139.351,220.863z M146.437,100.392H60.048l8.859-60.235h81.073L146.437,100.392z     M250.98,361.412h-99.784l7.087-120.471h92.697V361.412z M250.98,220.863h-91.516l5.906-100.392h85.611V220.863z M250.98,100.392    h-84.43l3.544-60.235h80.886V100.392z M271.059,40.157h80.887l3.544,60.235h-84.43V40.157z M271.059,120.471h85.611l5.906,100.392    h-91.516V120.471z M271.059,361.412V240.941h92.697l7.087,120.471H271.059z M372.059,40.157h71.034l8.859,60.235h-76.349    L372.059,40.157z M376.783,120.471h78.121l14.764,100.392h-86.98L376.783,120.471z M390.956,361.412l-7.086-120.471h88.751    l17.717,120.471H390.956z" fill="#FFFFFF"/>
	</g>
</g>
<g>
</g>
<g>
</g>
<g>
</g>
<g>
</g>
<g>
</g>
<g>
</g>
<g>
</g>
<g>
</g>
<g>
</g>
<g>
</g>
<g>
</g>
<g>
</g>
<g>
</g>
<g>
</g>
<g>
</g>
</svg>
